<svg width="37" height="22" viewBox="0 0 37 22" fill="none" xmlns="http://www.w3.org/2000/svg">
<path fill-rule="evenodd" clip-rule="evenodd" d="M11.5041 0.065398C12.7665 -0.00556938 14.0274 0.000108012 15.2897 0.000108012C15.2984 0.000108012 21.6864 0.000108012 21.6864 0.000108012C22.9734 0.000108012 24.2343 -0.00556938 25.4959 0.065398C26.6429 0.129269 27.7602 0.265526 28.8723 0.569976C31.2135 1.2101 33.2579 2.54713 34.7357 4.44267C36.2049 6.32614 37 8.63187 37 10.9993C37 13.3697 36.2049 15.674 34.7357 17.5574C33.2579 19.4523 31.2135 20.79 28.8723 21.4301C27.7602 21.7346 26.6429 21.8701 25.4959 21.9347C24.2343 22.0057 22.9734 21.9993 21.711 21.9993C21.7023 21.9993 15.3129 22 15.3129 22C14.0274 21.9993 12.7665 22.0057 11.5041 21.9347C10.3578 21.8701 9.24057 21.7346 8.12839 21.4301C5.78724 20.79 3.7428 19.4523 2.26498 17.5574C0.795863 15.674 0 13.3697 0 11.0001C0 8.63187 0.795863 6.32614 2.26498 4.44267C3.7428 2.54713 5.78724 1.2101 8.12839 0.569976C9.24057 0.265526 10.3578 0.129269 11.5041 0.065398Z" fill="#001C3D" fill-opacity="0.08"/>
</svg>
